
<svg width="1160px" height="557px" viewBox="0 0 1160 557" version="1.1" xmlns="http://www.w3.org/2000/svg" xmlns:xlink="http://www.w3.org/1999/xlink">
    <!-- Generator: Sketch 46.2 (44496) - http://www.bohemiancoding.com/sketch -->
    <desc>Created with Sketch.</desc>
    <defs>
        <path d="M305.074044,265.583295 C307.462154,258.232076 315.671033,252.272735 323.397182,252.272735 L387.985782,252.272735 C395.717262,252.272735 403.922281,258.236603 406.30892,265.583295 L447.803184,393.31336 C449.475438,398.46099 446.442155,402.633968 441.034585,402.633968 L270.34838,402.633968 C264.937932,402.633968 261.909305,398.455516 263.57978,393.31336 L305.074044,265.583295 Z" id="path-1"></path>
    </defs>
    <g id="Symbols" stroke="none" stroke-width="1" fill="none" fill-rule="evenodd" opacity="0.100939764">
        <g id="Call-back" transform="translate(-1904.000000, -132.000000)">
            <g id="Чертеж-левый-Copy" transform="translate(1898.000000, 126.000000)">
                <g id="Group-14" transform="translate(225.000000, 130.000000)">
                    <rect id="Rectangle-30" stroke="#000000" stroke-width="2.79999995" x="98.2549576" y="400.692608" width="513.203136" height="30.6136074"></rect>
                    <path d="M451.532292,351.064526 C451.528619,351.092558 451.525503,351.117266 451.522924,351.13863 L451.545812,351.004338 C451.541375,351.024416 451.536868,351.044479 451.532292,351.064526 Z M255.109629,351.005835 C255.106006,350.987721 255.102436,350.969593 255.098919,350.951451 L255.116698,351.070262 C255.114744,351.051832 255.112392,351.03035 255.109629,351.005835 Z M6.3334009,1.39999998 L6.3334009,0 L4.93340093,1.39999998 L6.3334009,1.39999998 Z M711.57654,1.39999998 L712.976539,1.39999998 L711.57654,0 L711.57654,1.39999998 Z M711.57654,155.643955 L711.57654,157.043955 L712.976539,155.643955 L711.57654,155.643955 Z M0.326059425,154.011773 L0,156.773274 L4.93340093,156.773274 L4.93340093,157.043955 L6.3334009,157.043955 L6.3334009,156.773274 L6.3334009,156.694466 L6.3334009,156.129806 L6.3334009,155.643955 L4.93340093,155.643955 Z" id="Combined-Shape" stroke="#000000" stroke-width="2.79999995"></path>
                    <g id="Rectangle-30">
                        <use fill="#F7F7F7" fill-rule="evenodd" xlink:href="#path-1"></use>
                        <path stroke="#000000" stroke-width="2.79999995" d="M306.405547,266.015846 L264.911283,393.745911 C263.533927,397.985767 265.891378,401.233969 270.34838,401.233969 L441.034585,401.233969 C445.491986,401.233969 447.849803,397.988123 446.471682,393.745911 L404.977417,266.015846 C402.777674,259.244466 395.10908,253.672735 387.985782,253.672735 L323.397182,253.672735 C316.275628,253.672735 308.605654,259.24335 306.405547,266.015846 Z"></path>
                    </g>
                    <ellipse id="Oval-4" stroke="#000000" stroke-width="2.79999995" cx="355.691482" cy="304.063827" rx="33.3982613" ry="33.4136073"></ellipse>
                    <ellipse id="Oval-4" stroke="#000000" stroke-width="2.79999995" cx="355.691482" cy="304.063827" rx="25.0486959" ry="25.0602055"></ellipse>
                    <ellipse id="Oval-4" stroke="#000000" stroke-width="2.79999995" cx="136.097915" cy="162.891336" rx="12.524348" ry="12.5301028"></ellipse>
                    <ellipse id="Oval-4" stroke="#000000" stroke-width="2.79999995" cx="578.624876" cy="162.891336" rx="12.524348" ry="12.5301028"></ellipse>
                </g>
                <g id="Group-21" transform="translate(123.000000, 75.000000)" stroke="#000000" stroke-width="2.79999995">
                    <ellipse id="Oval-4" fill="#FFFFFF" cx="103.5694" cy="131.882145" rx="103.5694" ry="103.502443"></ellipse>
                    <ellipse id="Oval-4" fill="#FAFAFA" cx="811.850456" cy="131.882145" rx="103.5694" ry="103.502443"></ellipse>
                    <ellipse id="Oval-4" fill="#FFFFFF" cx="334.094838" cy="103.502443" rx="103.5694" ry="103.502443"></ellipse>
                    <ellipse id="Oval-4" fill="#FFFFFF" cx="581.325018" cy="103.502443" rx="103.5694" ry="103.502443"></ellipse>
                </g>
                <g id="Group-13" transform="translate(123.000000, 75.000000)" stroke="#000000" stroke-width="2.79999995">
                    <ellipse id="Oval-4" fill="#FAFAFA" cx="103.5694" cy="131.882145" rx="103.5694" ry="103.502443"></ellipse>
                    <ellipse id="Oval-4" fill="#F7F7F7" cx="811.850456" cy="131.882145" rx="103.5694" ry="103.502443"></ellipse>
                    <ellipse id="Oval-4" fill="#FAFAFA" cx="334.094838" cy="103.502443" rx="103.5694" ry="103.502443"></ellipse>
                    <ellipse id="Oval-4" fill="#F7F7F7" cx="581.325018" cy="103.502443" rx="103.5694" ry="103.502443"></ellipse>
                    <ellipse id="Oval-4" cx="103.5694" cy="131.882145" rx="75.1713385" ry="75.1227408"></ellipse>
                    <ellipse id="Oval-4" cx="811.850456" cy="131.882145" rx="75.1713385" ry="75.1227408"></ellipse>
                    <ellipse id="Oval-4" cx="334.094838" cy="103.502443" rx="75.1713385" ry="75.1227408"></ellipse>
                    <ellipse id="Oval-4" cx="581.325018" cy="103.502443" rx="75.1713385" ry="75.1227408"></ellipse>
                    <ellipse id="Oval-4" cx="103.5694" cy="131.882145" rx="25.0571128" ry="25.0409136"></ellipse>
                    <ellipse id="Oval-4" cx="811.850456" cy="131.882145" rx="25.0571128" ry="25.0409136"></ellipse>
                    <ellipse id="Oval-4" cx="334.094838" cy="103.502443" rx="25.0571128" ry="25.0409136"></ellipse>
                    <ellipse id="Oval-4" cx="581.325018" cy="103.502443" rx="25.0571128" ry="25.0409136"></ellipse>
                </g>
                <g id="Group-15">
                    <path d="M228.747057,38.4316334 L228.747057,322.491533" id="Line" stroke="#000000" stroke-width="1.39999998" fill="#FFFFFF" stroke-linecap="square"></path>
                    <path d="M85.0683527,127.826955 L85.0683527,283.226675" id="Line" stroke="#000000" stroke-width="1.39999998" fill="#FFFFFF" stroke-linecap="square"></path>
                    <path d="M34.9478745,97.7483191 L34.9478745,283.226311" id="Line" stroke="#000000" stroke-width="1.39999998" fill="#FFFFFF" stroke-linecap="square"></path>
                    <path d="M113.469957,207.196632 L340.682792,207.196632" id="Line" stroke="#000000" stroke-width="1.39999998" fill="#FFFFFF" stroke-linecap="square"></path>
                    <path d="M457.630574,65.1666828 L457.630574,292.414602" id="Line" stroke="#000000" stroke-width="1.39999998" fill="#FFFFFF" stroke-linecap="square"></path>
                    <path d="M344.024157,178.790642 L571.236992,178.790642" id="Line" stroke="#000000" stroke-width="1.39999998" fill="#FFFFFF" stroke-linecap="square"></path>
                    <path d="M580.425746,66.0021531 L580.425746,512.978759" id="Line" stroke="#000000" stroke-width="1.39999998" fill="#FFFFFF" stroke-linecap="square"></path>
                    <path d="M502.739005,433.609081 L659.78317,433.609081" id="Line" stroke="#000000" stroke-width="1.39999998" fill="#FFFFFF" stroke-linecap="square"></path>
                    <path d="M704.8916,65.1666828 L704.8916,292.414602" id="Line" stroke="#000000" stroke-width="1.39999998" fill="#FFFFFF" stroke-linecap="square"></path>
                    <path d="M935.4458,37.5961631 L935.4458,320.820592" id="Line" stroke="#000000" stroke-width="1.39999998" fill="#FFFFFF" stroke-linecap="square"></path>
                    <path d="M591.285183,178.790642 L818.498018,178.790642" id="Line" stroke="#000000" stroke-width="1.39999998" fill="#FFFFFF" stroke-linecap="square"></path>
                    <path d="M821.839383,207.196632 L1049.05222,207.196632" id="Line" stroke="#000000" stroke-width="1.39999998" fill="#FFFFFF" stroke-linecap="square"></path>
                    <path d="M1091.64988,50.1282175 L1165.17054,50.1282175" id="Line" stroke="#000000" stroke-width="1.39999998" fill="#FFFFFF" stroke-linecap="square"></path>
                    <path d="M456.841131,74.356856 L27.3839049,74.356856" id="Line" stroke="#000000" stroke-width="1.39999998" fill="#FFFFFF" stroke-linecap="square"></path>
                    <ellipse id="Oval-3" stroke="#000000" stroke-width="1.39999998" cx="1105.85543" cy="78.5342074" rx="10.0240956" ry="10.0256435"></ellipse>
                    <path d="M1094.77616,89.6151818 L1117.07105,67.3168505" id="Line" stroke="#000000" stroke-width="1.39999998" fill="#FFFFFF" stroke-linecap="square"></path>
                    <path d="M917.903633,49.2927472 L242.901961,49.2927472" id="Line" stroke="#000000" stroke-width="1.39999998" fill="#FFFFFF" stroke-linecap="square"></path>
                    <polygon id="Triangle-2" stroke="#000000" stroke-width="1.39999998" fill="#000000" transform="translate(915.151012, 49.292747) rotate(90.000000) translate(-915.151012, -49.292747) " points="915.151012 36.171857 918.492378 62.4136374 911.809647 62.4136374"></polygon>
                    <path d="M228.086868,102.762846 L75.8704297,102.762846" id="Line" stroke="#000000" stroke-width="1.39999998" fill="#FFFFFF" stroke-linecap="square"></path>
                    <path d="M241.525723,309.959478 L26.6837009,309.959478" id="Line" stroke="#000000" stroke-width="1.39999998" fill="#FFFFFF" stroke-linecap="square"></path>
                    <polygon id="Triangle-2" stroke="#000000" stroke-width="1.39999998" fill="#000000" points="85.0683527 108.611138 88.409718 134.852918 81.7269875 134.852918"></polygon>
                    <polygon id="Triangle-2" stroke="#000000" stroke-width="1.39999998" fill="#000000" transform="translate(248.548652, 49.292747) rotate(-90.000000) translate(-248.548652, -49.292747) " points="248.548652 36.171857 251.890017 62.4136374 245.207287 62.4136374"></polygon>
                    <polygon id="Triangle-2" stroke="#000000" stroke-width="1.39999998" fill="#000000" points="34.9478745 80.205148 38.2892397 106.446928 31.6065093 106.446928"></polygon>
                    <polygon id="Triangle-2" stroke="#000000" stroke-width="1.39999998" fill="#000000" transform="translate(85.068353, 290.497027) rotate(-180.000000) translate(-85.068353, -290.497027) " points="85.0683527 277.376137 88.409718 303.617917 81.7269875 303.617917"></polygon>
                    <polygon id="Triangle-2" stroke="#000000" stroke-width="1.39999998" fill="#000000" transform="translate(34.947875, 290.497027) rotate(-180.000000) translate(-34.947875, -290.497027) " points="34.9478745 277.376137 38.2892397 303.617917 31.6065093 303.617917"></polygon>
                    <polygon id="Triangle-2" stroke="#000000" stroke-width="1.39999998" fill="#000000" transform="translate(872.648373, 269.115549) rotate(-135.000000) translate(-872.648373, -269.115549) " points="872.648373 254.175992 876.452879 284.055106 868.843866 284.055106"></polygon>
                    <polygon id="Triangle-2" stroke="#000000" stroke-width="1.39999998" fill="#000000" transform="translate(998.396658, 144.298448) rotate(-315.000000) translate(-998.396658, -144.298448) " points="998.396658 128.557936 1002.40514 160.038961 994.38818 160.038961"></polygon>
                    <path d="M879.833847,261.858733 L1091.17602,50.4839246" id="Line" stroke="#000000" stroke-width="1.39999998" fill="#FFFFFF" stroke-linecap="square"></path>
                    <text id="48" fill="#000000" font-family="MuseoSansCyrl-300, Museo Sans Cyrl" font-size="25.1999996" font-weight="300">
                        <tspan x="1124.23293" y="84.153861">48</tspan>
                    </text>
                    <text id="300" fill="#000000" font-family="MuseoSansCyrl-300, Museo Sans Cyrl" font-size="25.1999996" font-weight="300">
                        <tspan x="552.859483" y="24">300</tspan>
                    </text>
                    <text id="52.5" fill="#000000" transform="translate(15.973694, 195.126113) rotate(-90.000000) translate(-15.973694, -195.126113) " font-family="MuseoSansCyrl-300, Museo Sans Cyrl" font-size="25.1999996" font-weight="300">
                        <tspan x="-12.6665798" y="203.626113">52.5</tspan>
                    </text>
                    <text id="48.5" fill="#000000" transform="translate(68.958200, 206.822697) rotate(-90.000000) translate(-68.958200, -206.822697) " font-family="MuseoSansCyrl-300, Museo Sans Cyrl" font-size="25.1999996" font-weight="300">
                        <tspan x="39.124581" y="215.322697">48.5</tspan>
                    </text>
                </g>
            </g>
        </g>
    </g>
</svg>